<svg xmlns="http://www.w3.org/2000/svg" viewBox="0 0 192 192"><rect width="192" height="192" rx="40" fill="#394c6a"/><rect x="8" y="8" width="176" height="176" rx="33" fill="#8ed4dd" stroke="#19283e" stroke-width="5"/><path d="M84 44C86 35 88 23 98 24C113 25 111 36 104 44C130 50 146 81 146 113C146 151 125 170 96 170C67 170 46 151 46 113C46 79 63 50 84 44Z" fill="#ff273d" stroke="#251b2a" stroke-width="5"/><path d="M138 84C145 137 121 164 85 163C116 178 150 158 145 113Z" fill="#b30d35"/><g fill="#fff1ce" stroke="#241c2b" stroke-width="3"><ellipse cx="78" cy="79" rx="14" ry="22"/><ellipse cx="115" cy="79" rx="14" ry="22"/></g><g fill="#161722"><ellipse cx="82" cy="78" rx="7" ry="14"/><ellipse cx="111" cy="78" rx="7" ry="14"/><path d="M85 105h23v17h19v23h-19v18H85v-18H65v-23h20z"/></g><path d="M65 57l25 5M103 62l23-5" fill="none" stroke="#251b2a" stroke-width="5" stroke-linecap="round"/></svg>
